<svg width="24" height="24" viewBox="0 0 24 24" fill="none" xmlns="http://www.w3.org/2000/svg">
<path fill-rule="evenodd" clip-rule="evenodd" d="M3.51472 3.51472C5.76516 1.26428 8.8174 0 12 0C15.1826 0 18.2348 1.26428 20.4853 3.51472C22.7357 5.76516 24 8.8174 24 12C24 15.1826 22.7357 18.2348 20.4853 20.4853C18.2348 22.7357 15.1826 24 12 24C8.8174 24 5.76516 22.7357 3.51472 20.4853C1.26428 18.2348 0 15.1826 0 12C0 8.8174 1.26428 5.76516 3.51472 3.51472ZM12 1.5C9.21523 1.5 6.54451 2.60625 4.57538 4.57538C2.60625 6.54451 1.5 9.21523 1.5 12C1.5 14.7848 2.60625 17.4555 4.57538 19.4246C6.54451 21.3938 9.21523 22.5 12 22.5C14.7848 22.5 17.4555 21.3938 19.4246 19.4246C21.3938 17.4555 22.5 14.7848 22.5 12C22.5 9.21523 21.3938 6.54451 19.4246 4.57538C17.4555 2.60625 14.7848 1.5 12 1.5Z" fill="#227681"/>
<path fill-rule="evenodd" clip-rule="evenodd" d="M12.574 8.36418C12.2999 8.25065 11.9983 8.22095 11.7074 8.27882C11.4164 8.3367 11.1491 8.47956 10.9393 8.68934C10.7296 8.89912 10.5867 9.16639 10.5288 9.45737C10.4709 9.74834 10.5007 10.0499 10.6142 10.324C10.7277 10.5981 10.92 10.8324 11.1666 10.9972C11.4133 11.162 11.7033 11.25 12 11.25C12.5933 11.25 13.1734 11.4259 13.6667 11.7556C14.1601 12.0852 14.5446 12.5538 14.7716 13.102C14.9987 13.6501 15.0581 14.2533 14.9424 14.8353C14.8266 15.4172 14.5409 15.9518 14.1213 16.3713C13.7018 16.7909 13.1672 17.0766 12.5853 17.1924C12.0033 17.3081 11.4001 17.2487 10.852 17.0216C10.3038 16.7946 9.83524 16.4101 9.50559 15.9167C9.17595 15.4234 9 14.8433 9 14.25C9 13.8358 9.33579 13.5 9.75 13.5C10.1642 13.5 10.5 13.8358 10.5 14.25C10.5 14.5467 10.588 14.8367 10.7528 15.0834C10.9176 15.33 11.1519 15.5223 11.426 15.6358C11.7001 15.7494 12.0017 15.7791 12.2926 15.7212C12.5836 15.6633 12.8509 15.5204 13.0607 15.3107C13.2704 15.1009 13.4133 14.8336 13.4712 14.5426C13.5291 14.2517 13.4994 13.9501 13.3858 13.676C13.2723 13.4019 13.08 13.1676 12.8334 13.0028C12.5867 12.838 12.2967 12.75 12 12.75C11.4067 12.75 10.8266 12.5741 10.3333 12.2444C9.83994 11.9148 9.45543 11.4462 9.22836 10.8981C9.0013 10.3499 8.94189 9.74667 9.05765 9.16473C9.1734 8.58279 9.45912 8.04824 9.87868 7.62868C10.2982 7.20912 10.8328 6.9234 11.4147 6.80765C11.9967 6.69189 12.5999 6.7513 13.1481 6.97836C13.6962 7.20543 14.1648 7.58994 14.4944 8.08329C14.8241 8.57664 15 9.15666 15 9.75C15 10.1642 14.6642 10.5 14.25 10.5C13.8358 10.5 13.5 10.1642 13.5 9.75C13.5 9.45333 13.412 9.16332 13.2472 8.91665C13.0824 8.66997 12.8481 8.47771 12.574 8.36418Z" fill="#227681"/>
<path fill-rule="evenodd" clip-rule="evenodd" d="M12 5.25C12.4142 5.25 12.75 5.58579 12.75 6V7.5C12.75 7.91421 12.4142 8.25 12 8.25C11.5858 8.25 11.25 7.91421 11.25 7.5V6C11.25 5.58579 11.5858 5.25 12 5.25Z" fill="#227681"/>
<path fill-rule="evenodd" clip-rule="evenodd" d="M12 15.75C12.4142 15.75 12.75 16.0858 12.75 16.5V18C12.75 18.4142 12.4142 18.75 12 18.75C11.5858 18.75 11.25 18.4142 11.25 18V16.5C11.25 16.0858 11.5858 15.75 12 15.75Z" fill="#227681"/>
</svg>
