<svg width="14" height="14" viewBox="0 0 14 14" fill="none" xmlns="http://www.w3.org/2000/svg">
    <path fill-rule="evenodd" clip-rule="evenodd" d="M10.3334 1.16671C10.3334 0.666707 10 0.333374 9.50004 0.333374H4.50004C4.00004 0.333374 3.66671 0.666707 3.66671 1.16671V2.83337H0.333374V4.50004H1.16671V12.8334C1.16671 13.3334 1.50004 13.6667 2.00004 13.6667H12C12.5 13.6667 12.8334 13.3334 12.8334 12.8334V4.50004H13.6667V2.83337H10.3334V1.16671ZM11.1667 12H2.83337V4.50004H11.1667V12ZM8.66671 2.00004H5.33337V2.83337H8.66671V2.00004ZM6.16671 6.16671V11.1667H4.50004V6.16671H6.16671ZM9.50004 6.16671H7.83337V11.1667H9.50004V6.16671Z" fill="#137D60"/>
</svg>
