<svg width="25" height="24" viewBox="0 0 25 24" fill="none" xmlns="http://www.w3.org/2000/svg">
<path fill-rule="evenodd" clip-rule="evenodd" d="M12.6667 12.7568C12.07 12.7568 11.4977 12.9939 11.0758 13.4158C10.6538 13.8378 10.4167 14.4101 10.4167 15.0068V15.2918C10.4167 15.706 10.081 16.0418 9.66675 16.0418C9.25253 16.0418 8.91675 15.706 8.91675 15.2918V15.0068C8.91675 14.0123 9.31184 13.0584 10.0151 12.3552C10.7184 11.6519 11.6722 11.2568 12.6667 11.2568C13.6613 11.2568 14.6151 11.6519 15.3184 12.3552C16.0217 13.0584 16.4167 14.0123 16.4167 15.0068V15.2918C16.4167 15.706 16.081 16.0418 15.6667 16.0418C15.2525 16.0418 14.9167 15.706 14.9167 15.2918V15.0068C14.9167 14.4101 14.6797 13.8378 14.2577 13.4158C13.8358 12.9939 13.2635 12.7568 12.6667 12.7568Z" fill="#227681"/>
<path fill-rule="evenodd" clip-rule="evenodd" d="M15.1558 4.54553C15.5488 4.67651 15.7612 5.10125 15.6302 5.49421L13.3802 12.2442C13.2492 12.6372 12.8244 12.8495 12.4315 12.7186C12.0385 12.5876 11.8262 12.1628 11.9571 11.7699L14.2071 5.01987C14.3381 4.62691 14.7629 4.41454 15.1558 4.54553Z" fill="#227681"/>
<path fill-rule="evenodd" clip-rule="evenodd" d="M6.41869 6.94643C6.60369 6.82282 6.8212 6.75684 7.0437 6.75684C7.34207 6.75684 7.62822 6.87536 7.8392 7.08634C8.05018 7.29732 8.1687 7.58347 8.1687 7.88184C8.1687 8.10434 8.10272 8.32185 7.97911 8.50685C7.85549 8.69186 7.67979 8.83605 7.47422 8.9212C7.26865 9.00635 7.04245 9.02863 6.82423 8.98522C6.606 8.94181 6.40554 8.83467 6.24821 8.67733C6.09087 8.52 5.98373 8.31954 5.94032 8.10131C5.89691 7.88308 5.91919 7.65688 6.00434 7.45132C6.08949 7.24575 6.23368 7.07005 6.41869 6.94643ZM7.18721 8.22829C7.20979 8.21894 7.23152 8.20735 7.25204 8.19364C7.29319 8.16614 7.32828 8.13092 7.3555 8.09017C7.36908 8.06985 7.38071 8.04815 7.39016 8.02534C7.40909 7.97963 7.4187 7.93085 7.4187 7.88184C7.4187 7.85739 7.41631 7.83289 7.4115 7.80868C7.39703 7.73593 7.36131 7.66912 7.30887 7.61667C7.25642 7.56422 7.1896 7.52851 7.11686 7.51404C7.09265 7.50923 7.06815 7.50684 7.0437 7.50684C6.99469 7.50684 6.94591 7.51644 6.9002 7.53538C6.87739 7.54483 6.85569 7.55645 6.83536 7.57003C6.79461 7.59726 6.75939 7.63235 6.7319 7.6735C6.71819 7.69402 6.7066 7.71574 6.69725 7.73833C6.67849 7.78361 6.6687 7.83235 6.6687 7.88184C6.6687 7.90658 6.67115 7.93108 6.67591 7.95499C6.69027 8.02721 6.72571 8.09417 6.77854 8.147C6.83136 8.19983 6.89833 8.23527 6.97054 8.24963C6.99446 8.25439 7.01896 8.25684 7.0437 8.25684C7.09319 8.25684 7.14193 8.24705 7.18721 8.22829Z" fill="#227681"/>
<path fill-rule="evenodd" clip-rule="evenodd" d="M19.7937 10.5068C20.0921 10.5068 20.3782 10.6254 20.5892 10.8363C20.8002 11.0473 20.9187 11.3335 20.9187 11.6318C20.9187 11.8543 20.8527 12.0719 20.7291 12.2569C20.6055 12.4419 20.4298 12.5861 20.2242 12.6712C20.0187 12.7563 19.7925 12.7786 19.5742 12.7352C19.356 12.6918 19.1555 12.5847 18.9982 12.4273C18.8409 12.27 18.7337 12.0695 18.6903 11.8513C18.6469 11.6331 18.6692 11.4069 18.7543 11.2013C18.8395 10.9957 18.9837 10.82 19.1687 10.6964C19.3537 10.5728 19.5712 10.5068 19.7937 10.5068ZM19.7937 12.0068C19.8432 12.0068 19.8919 11.997 19.9372 11.9783C19.9598 11.9689 19.9815 11.9574 20.002 11.9436C20.0432 11.9161 20.0783 11.8809 20.1055 11.8402C20.1191 11.8198 20.1307 11.7981 20.1402 11.7753C20.1591 11.7296 20.1687 11.6808 20.1687 11.6318C20.1687 11.6074 20.1663 11.5829 20.1615 11.5587C20.147 11.4859 20.1113 11.4191 20.0589 11.3667C20.0064 11.3142 19.9396 11.2785 19.8669 11.264C19.8427 11.2592 19.8181 11.2568 19.7937 11.2568V12.0068Z" fill="#227681"/>
<path fill-rule="evenodd" clip-rule="evenodd" d="M10.0437 3.75684C10.3421 3.75684 10.6282 3.87536 10.8392 4.08634C11.0502 4.29732 11.1687 4.58347 11.1687 4.88184C11.1687 5.10434 11.1027 5.32185 10.9791 5.50685C10.8555 5.69186 10.6798 5.83605 10.4742 5.9212C10.2687 6.00635 10.0425 6.02863 9.82423 5.98522C9.606 5.94181 9.40554 5.83467 9.24821 5.67733C9.09087 5.51999 8.98373 5.31954 8.94032 5.10131C8.89691 4.88309 8.91919 4.65689 9.00434 4.45132C9.08949 4.24575 9.23368 4.07005 9.41868 3.94643C9.60369 3.82282 9.8212 3.75684 10.0437 3.75684ZM10.0437 5.25684C10.0932 5.25684 10.1419 5.24705 10.1872 5.22829C10.2098 5.21894 10.2315 5.20735 10.252 5.19364C10.2932 5.16614 10.3283 5.13092 10.3555 5.09018C10.3691 5.06985 10.3807 5.04815 10.3902 5.02534C10.4091 4.97962 10.4187 4.93084 10.4187 4.88184C10.4187 4.85739 10.4163 4.83289 10.4115 4.80868C10.397 4.73594 10.3613 4.66912 10.3089 4.61667C10.2564 4.56422 10.1896 4.52851 10.1169 4.51404C10.0927 4.50923 10.0681 4.50684 10.0437 4.50684V5.25684Z" fill="#227681"/>
<path fill-rule="evenodd" clip-rule="evenodd" d="M2.78663 17.5411C5.63931 15.409 9.10519 14.2568 12.6666 14.2568C16.2281 14.2568 19.694 15.409 22.5466 17.5411C22.8784 17.7891 22.9464 18.2591 22.6984 18.5909C22.4504 18.9227 21.9804 18.9906 21.6486 18.7426C19.0552 16.8042 15.9044 15.7568 12.6666 15.7568C9.4289 15.7568 6.27804 16.8042 3.68465 18.7426C3.35287 18.9906 2.88288 18.9227 2.6349 18.5909C2.38692 18.2591 2.45485 17.7891 2.78663 17.5411Z" fill="#227681"/>
<path fill-rule="evenodd" clip-rule="evenodd" d="M4.18147 3.52155C6.4319 1.27112 9.48415 0.00683594 12.6667 0.00683594C15.8493 0.00683594 18.9016 1.27112 21.152 3.52155C23.4025 5.77199 24.6667 8.82424 24.6667 12.0068C24.6667 15.1894 23.4025 18.2417 21.152 20.4921C18.9016 22.7426 15.8493 24.0068 12.6667 24.0068C9.48415 24.0068 6.4319 22.7426 4.18147 20.4921C1.93103 18.2417 0.666748 15.1894 0.666748 12.0068C0.666748 8.82424 1.93103 5.77199 4.18147 3.52155ZM12.6667 1.50684C9.88198 1.50684 7.21126 2.61308 5.24213 4.58221C3.27299 6.55135 2.16675 9.22206 2.16675 12.0068C2.16675 14.7916 3.27299 17.4623 5.24213 19.4315C7.21126 21.4006 9.88198 22.5068 12.6667 22.5068C15.4515 22.5068 18.1222 21.4006 20.0914 19.4315C22.0605 17.4623 23.1667 14.7916 23.1667 12.0068C23.1667 9.22206 22.0605 6.55135 20.0914 4.58221C18.1222 2.61308 15.4515 1.50684 12.6667 1.50684Z" fill="#227681"/>
<path fill-rule="evenodd" clip-rule="evenodd" d="M4.91869 10.6964C5.10369 10.5728 5.3212 10.5068 5.5437 10.5068C5.84207 10.5068 6.12822 10.6254 6.3392 10.8363C6.55018 11.0473 6.6687 11.3335 6.6687 11.6318C6.6687 11.8543 6.60272 12.0718 6.47911 12.2569C6.35549 12.4419 6.17979 12.5861 5.97422 12.6712C5.76865 12.7563 5.54245 12.7786 5.32423 12.7352C5.106 12.6918 4.90554 12.5847 4.74821 12.4273C4.59087 12.27 4.48373 12.0695 4.44032 11.8513C4.39691 11.6331 4.41919 11.4069 4.50434 11.2013C4.58949 10.9958 4.73368 10.82 4.91869 10.6964ZM5.68721 11.9783C5.70979 11.9689 5.73152 11.9574 5.75204 11.9436C5.79319 11.9161 5.82828 11.8809 5.8555 11.8402C5.86908 11.8198 5.88071 11.7981 5.89016 11.7753C5.90909 11.7296 5.9187 11.6808 5.9187 11.6318C5.9187 11.6074 5.91631 11.5829 5.9115 11.5587C5.89703 11.4859 5.86131 11.4191 5.80887 11.3667C5.75642 11.3142 5.6896 11.2785 5.61686 11.264C5.59265 11.2592 5.56815 11.2568 5.5437 11.2568C5.49469 11.2568 5.44591 11.2664 5.4002 11.2854C5.37739 11.2948 5.35569 11.3065 5.33536 11.32C5.29461 11.3473 5.25939 11.3824 5.2319 11.4235C5.21819 11.444 5.2066 11.4657 5.19725 11.4883C5.17849 11.5336 5.1687 11.5824 5.1687 11.6318C5.1687 11.6566 5.17115 11.6811 5.17591 11.705C5.19027 11.7772 5.22571 11.8442 5.27854 11.897C5.33137 11.9498 5.39833 11.9853 5.47054 11.9996C5.49446 12.0044 5.51896 12.0068 5.5437 12.0068C5.59319 12.0068 5.64193 11.997 5.68721 11.9783Z" fill="#227681"/>
</svg>
