<svg width="25" height="24" viewBox="0 0 25 24" fill="none" xmlns="http://www.w3.org/2000/svg">
<path fill-rule="evenodd" clip-rule="evenodd" d="M12.6667 1.5C6.86776 1.5 2.16675 6.20101 2.16675 12C2.16675 17.799 6.86776 22.5 12.6667 22.5C18.4657 22.5 23.1667 17.799 23.1667 12C23.1667 6.20101 18.4657 1.5 12.6667 1.5ZM0.666748 12C0.666748 5.37258 6.03933 0 12.6667 0C19.2942 0 24.6667 5.37258 24.6667 12C24.6667 18.6274 19.2942 24 12.6667 24C6.03933 24 0.666748 18.6274 0.666748 12Z" fill="#227681"/>
<path fill-rule="evenodd" clip-rule="evenodd" d="M10.9891 0.394354C11.3236 0.638629 11.3967 1.10783 11.1524 1.44235C9.71896 3.4054 8.66675 7.44676 8.66675 12.0501C8.66675 16.6462 9.7163 20.5952 11.1572 22.6144C11.3978 22.9515 11.3196 23.4199 10.9824 23.6605C10.6453 23.9011 10.1769 23.8229 9.93626 23.4857C8.2372 21.1049 7.16675 16.7939 7.16675 12.0501C7.16675 7.31335 8.23453 2.8947 9.94105 0.557751C10.1853 0.223233 10.6545 0.150078 10.9891 0.394354Z" fill="#227681"/>
<path fill-rule="evenodd" clip-rule="evenodd" d="M14.3444 0.394354C14.6789 0.150078 15.1481 0.223233 15.3924 0.557751C17.0989 2.8947 18.1667 7.31335 18.1667 12.0501C18.1667 16.7939 17.0962 21.1049 15.3972 23.4857C15.1566 23.8229 14.6882 23.9011 14.351 23.6605C14.0139 23.4199 13.9356 22.9515 14.1762 22.6144C15.6171 20.5952 16.6667 16.6462 16.6667 12.0501C16.6667 7.44676 15.6145 3.4054 14.181 1.44235C13.9367 1.10783 14.0099 0.638629 14.3444 0.394354Z" fill="#227681"/>
<path fill-rule="evenodd" clip-rule="evenodd" d="M0.666748 12C0.666748 11.5858 1.00253 11.25 1.41675 11.25H23.9167C24.331 11.25 24.6667 11.5858 24.6667 12C24.6667 12.4142 24.331 12.75 23.9167 12.75H1.41675C1.00253 12.75 0.666748 12.4142 0.666748 12Z" fill="#227681"/>
<path fill-rule="evenodd" clip-rule="evenodd" d="M1.9668 17.25C1.9668 16.8358 2.30258 16.5 2.7168 16.5H22.6168C23.031 16.5 23.3668 16.8358 23.3668 17.25C23.3668 17.6642 23.031 18 22.6168 18H2.7168C2.30258 18 1.9668 17.6642 1.9668 17.25Z" fill="#227681"/>
<path fill-rule="evenodd" clip-rule="evenodd" d="M1.9668 6.75C1.9668 6.33579 2.30258 6 2.7168 6H22.6168C23.031 6 23.3668 6.33579 23.3668 6.75C23.3668 7.16421 23.031 7.5 22.6168 7.5H2.7168C2.30258 7.5 1.9668 7.16421 1.9668 6.75Z" fill="#227681"/>
</svg>
