<svg width="14" height="14" viewBox="0 0 14 14" fill="none" xmlns="http://www.w3.org/2000/svg">
    <path fill-rule="evenodd" clip-rule="evenodd" d="M10.3333 5.83338L8.16665 3.66671L9.49998 2.33338L11.6666 4.50004L10.3333 5.83338ZM4.16665 12H1.99998V9.83338L6.99998 4.83338L9.16665 7.00004L4.16665 12ZM10.0833 0.583374C9.74998 0.250041 9.24998 0.250041 8.91665 0.583374L0.583313 8.91671C0.416646 9.08337 0.333313 9.25004 0.333313 9.50004V12.8334C0.333313 13.3334 0.666646 13.6667 1.16665 13.6667H4.49998C4.74998 13.6667 4.91665 13.5834 5.08331 13.4167L13.4166 5.08337C13.75 4.75004 13.75 4.25004 13.4166 3.91671L10.0833 0.583374Z" fill="white"/>
</svg>
